<svg width="220" height="201" viewBox="0 0 220 201" fill="none" xmlns="http://www.w3.org/2000/svg">
<g filter="url(#filter0_d_0_1)">
<path d="M95.7568 134.66C113.001 137.755 130.842 134.49 145.716 125.523L172.909 138.782L162.112 111.805C173.388 98.8962 179.177 82.4074 178.347 65.6315C177.517 48.8552 170.125 32.9987 157.627 21.2314C145.127 9.46262 128.441 2.65381 110.896 2.17852C93.3512 1.70322 76.2543 7.59695 63.0173 18.6723C49.7814 29.7468 41.3843 45.1808 39.4795 61.8851C37.5749 78.5877 42.298 95.3568 52.7219 108.848C63.1477 122.342 78.5122 131.565 95.7568 134.66Z" fill="white"/>
</g>
<g filter="url(#filter1_i_0_1)">
<path d="M99.24 120.962C112.802 123.425 126.832 120.836 138.526 113.716L159.914 124.257L151.417 102.821C160.281 92.5686 164.83 79.4703 164.172 66.1422C163.515 52.8139 157.698 40.2147 147.867 30.8628C138.034 21.5098 124.91 16.0962 111.112 15.7142C97.3146 15.3321 83.8708 20.0101 73.4639 28.8057C63.0579 37.6006 56.4582 49.8603 54.9645 63.1308C53.4709 76.3998 57.1895 89.7235 65.3903 100.444C73.5927 111.167 85.6778 118.499 99.24 120.962Z" fill="#44B253"/>
</g>
<g filter="url(#filter2_d_0_1)">
<mask id="path-3-inside-1_0_1" fill="white">
<path d="M130.393 80.9511C131.852 80.9511 133.194 81.4743 134.151 82.4335L146.457 94.7876C148.572 96.9096 148.505 100.437 146.302 102.646L143.472 105.427L142.786 105.969C141.347 107.093 139.724 108.014 137.976 108.702C136.353 109.331 134.75 109.738 133.069 109.942C132.934 109.952 132.47 110 131.687 110C127.138 110 110.794 108.469 91.2425 88.8576C74.7439 72.3081 68.6583 60.1575 70.2425 46.9314C70.4357 45.323 70.8317 43.7145 71.4692 42.0286C72.1551 40.2554 73.0727 38.6276 74.2029 37.1839L74.483 36.7188L77.5065 33.6666C78.5594 32.6007 80.047 32 81.5925 32C83.0608 32 84.3938 32.5329 85.3501 33.4922L97.6662 45.8365C99.7816 47.9585 99.7044 51.4855 97.502 53.7043L90.8368 60.3901L91.8124 62.1438L91.8314 62.1781C94.0321 66.1574 97.0355 71.5882 102.766 77.3272C108.477 83.0652 113.889 86.0782 117.839 88.277L117.855 88.286L119.652 89.284L126.307 82.6079C127.36 81.5518 128.847 80.9511 130.393 80.9511Z"/>
</mask>
<path d="M130.393 80.9511C131.852 80.9511 133.194 81.4743 134.151 82.4335L146.457 94.7876C148.572 96.9096 148.505 100.437 146.302 102.646L143.472 105.427L142.786 105.969C141.347 107.093 139.724 108.014 137.976 108.702C136.353 109.331 134.75 109.738 133.069 109.942C132.934 109.952 132.47 110 131.687 110C127.138 110 110.794 108.469 91.2425 88.8576C74.7439 72.3081 68.6583 60.1575 70.2425 46.9314C70.4357 45.323 70.8317 43.7145 71.4692 42.0286C72.1551 40.2554 73.0727 38.6276 74.2029 37.1839L74.483 36.7188L77.5065 33.6666C78.5594 32.6007 80.047 32 81.5925 32C83.0608 32 84.3938 32.5329 85.3501 33.4922L97.6662 45.8365C99.7816 47.9585 99.7044 51.4855 97.502 53.7043L90.8368 60.3901L91.8124 62.1438L91.8314 62.1781C94.0321 66.1574 97.0355 71.5882 102.766 77.3272C108.477 83.0652 113.889 86.0782 117.839 88.277L117.855 88.286L119.652 89.284L126.307 82.6079C127.36 81.5518 128.847 80.9511 130.393 80.9511Z" fill="#FAFAFA"/>
<path d="M130.393 80.9511C131.852 80.9511 133.194 81.4743 134.151 82.4335L146.457 94.7876C148.572 96.9096 148.505 100.437 146.302 102.646L143.472 105.427L142.786 105.969C141.347 107.093 139.724 108.014 137.976 108.702C136.353 109.331 134.75 109.738 133.069 109.942C132.934 109.952 132.47 110 131.687 110C127.138 110 110.794 108.469 91.2425 88.8576C74.7439 72.3081 68.6583 60.1575 70.2425 46.9314C70.4357 45.323 70.8317 43.7145 71.4692 42.0286C72.1551 40.2554 73.0727 38.6276 74.2029 37.1839L74.483 36.7188L77.5065 33.6666C78.5594 32.6007 80.047 32 81.5925 32C83.0608 32 84.3938 32.5329 85.3501 33.4922L97.6662 45.8365C99.7816 47.9585 99.7044 51.4855 97.502 53.7043L90.8368 60.3901L91.8124 62.1438L91.8314 62.1781C94.0321 66.1574 97.0355 71.5882 102.766 77.3272C108.477 83.0652 113.889 86.0782 117.839 88.277L117.855 88.286L119.652 89.284L126.307 82.6079C127.36 81.5518 128.847 80.9511 130.393 80.9511Z" stroke="white" stroke-width="10" mask="url(#path-3-inside-1_0_1)"/>
</g>
<g filter="url(#filter3_d_0_1)">
<path d="M186.962 130.163C188.131 127.1 187.705 123.182 187.055 116.42C187.421 116.21 187.824 116.841 187.824 116.841L190.6 125.459C190.626 126.268 190.567 126.539 189.944 125.745C189.319 121.661 189.259 119.186 189.718 114.409C190.791 113.105 191.73 116.165 193.507 122.774C193.446 123.425 193.343 123.63 192.907 123.414C191.925 115.812 191.659 112.495 192.513 111.018C192.847 110.298 193.142 110.445 193.788 111.313L195.326 118.769C195.803 119.98 196.266 119.961 197.313 119.131" stroke="#F32B2B" stroke-width="2" stroke-linecap="round" stroke-linejoin="round" shape-rendering="crispEdges"/>
</g>
<g filter="url(#filter4_d_0_1)">
<path d="M182.079 135.803C184.085 126.355 184.097 120.614 181.929 109.506C180.841 107.567 180.265 106.718 179.847 109.657C181.788 121.214 182.971 125.572 185.286 129.492C186.212 130.743 186.651 130.829 187.33 130.208" stroke="#F32B2B" stroke-width="2" stroke-linecap="round" stroke-linejoin="round" shape-rendering="crispEdges"/>
</g>
<g filter="url(#filter5_d_0_1)">
<path d="M197.395 119.509C197.96 117.602 198.088 116.403 197.92 113.988C197.683 110.768 197.698 109.129 198.164 106.701C197.657 109.9 198.201 111.445 199.852 113.997C200.988 115.293 201.45 115.116 202.196 114.392C202.62 110.739 202.252 108.679 200.171 104.976C199.127 104.303 198.713 104.414 198.352 105.674C198.539 107.408 198.946 108.06 199.927 108.956C200.69 109.497 201.31 109.079 202.552 107.812" stroke="#F32B2B" stroke-width="2" stroke-linecap="round" stroke-linejoin="round" shape-rendering="crispEdges"/>
</g>
<g filter="url(#filter6_d_0_1)">
<path d="M203.277 113.603L203.671 106.155L203.258 99.1535C206.009 102.602 206.873 104.388 207.553 107.392C207.631 107.918 207.655 108.336 207.604 108.657M207.604 108.657C207.463 109.551 206.745 109.685 205.04 109.244C203.729 107.9 203.61 107.482 204.758 107.476C205.769 107.715 206.227 107.957 206.859 108.545C207.113 108.7 207.336 108.751 207.604 108.657ZM207.604 108.657C207.883 108.56 208.212 108.305 208.678 107.847" stroke="#F32B2B" stroke-width="2" stroke-linecap="round" stroke-linejoin="round" shape-rendering="crispEdges"/>
</g>
<g filter="url(#filter7_d_0_1)">
<path d="M207.665 108.099C207.665 108.099 208.019 107.626 208.066 106.071C208.189 103.309 207.786 101.578 207.365 98.4975C206.984 96.3203 207.418 94.2553 207.121 92.5563L206.453 87.1192C206.345 86.5025 205.716 86.403 205.548 86.8441C205.187 87.7781 205.612 89.9522 206.165 93.1621C207.023 97.1017 207.053 96.4014 207.766 99.776C208.36 102.292 208.608 103.945 209.923 104.506C210.962 105.171 211.57 104.85 212.661 104.068C213.291 103.295 213.735 102.309 214.63 99.9027L203.971 95.9138L209.821 89.6784" stroke="#F32B2B" stroke-width="2" stroke-linecap="round" stroke-linejoin="round" shape-rendering="crispEdges"/>
</g>
<path d="M208.5 96C208.37 96.6111 208.284 98.3811 208.5 99L213 101L214.5 98.5L208.5 96Z" fill="white"/>
<path d="M205.333 95.6169L203.5 97L206.5 99C206.5 98.5 206 96.5 206 95.2957L205.333 95.6169Z" fill="white"/>
<g filter="url(#filter8_d_0_1)">
<path d="M168.212 143.836C172.559 147.981 173.623 146.456 174.736 141.54C175.205 136.998 173.358 126.706 170.703 110.697C170.703 110.697 183.557 139.294 182.155 136.174C180.752 133.055 176.995 131.934 176.995 131.934C173.409 130.53 172.449 131.276 171.187 132.197C169.926 133.118 169.148 134.793 169.332 135.867C169.516 136.942 170.272 138.253 171.867 138.246C173.463 138.24 175.676 136.246 176.824 135.081C177.972 133.916 178.201 132.901 179.252 131.647C179.967 130.793 181.202 129.568 181.202 129.568" stroke="#F32B2B" stroke-width="2" stroke-linecap="round" shape-rendering="crispEdges"/>
</g>
<g filter="url(#filter9_d_0_1)">
<path d="M29.3146 156.43L20.9446 181H16.6696L4.96965 151.3H8.79465L18.7846 176.725L27.4696 151.3H31.2947L40.5196 176.635L49.5647 151.3H53.1647L42.5897 181H38.3146L29.3146 156.43ZM71.4874 181V167.32C71.4874 165.49 71.0824 164.2 70.2724 163.45C69.4624 162.67 68.4274 162.28 67.1674 162.28C66.4174 162.28 65.6674 162.4 64.9174 162.64C64.1974 162.88 63.5224 163.24 62.8924 163.72C62.2624 164.17 61.7074 164.74 61.2274 165.43C60.7474 166.09 60.3724 166.855 60.1024 167.725V181H56.9524V147.7H60.1024V164.17C60.4924 162.91 61.3324 161.845 62.6224 160.975C63.9424 160.075 65.6074 159.625 67.6174 159.625C68.5774 159.625 69.4774 159.76 70.3174 160.03C71.1874 160.27 71.9374 160.675 72.5674 161.245C73.1974 161.815 73.6924 162.565 74.0524 163.495C74.4424 164.425 74.6374 165.565 74.6374 166.915V181H71.4874ZM94.6139 181L94.2539 177.31H94.0739C93.7139 177.88 93.2339 178.42 92.6339 178.93C92.0339 179.44 91.3589 179.89 90.6089 180.28C89.8889 180.67 89.0939 180.97 88.2239 181.18C87.3839 181.42 86.5439 181.54 85.7039 181.54C83.7239 181.54 82.2389 180.97 81.2489 179.83C80.2589 178.66 79.7639 177.205 79.7639 175.465C79.7639 173.755 80.1989 172.39 81.0689 171.37C81.9389 170.35 83.0039 169.585 84.2639 169.075C85.5239 168.565 86.8439 168.235 88.2239 168.085C89.6339 167.935 90.8639 167.86 91.9139 167.86H93.9389V167.32C93.9389 166.18 93.7739 165.31 93.4439 164.71C93.1439 164.11 92.6939 163.6 92.0939 163.18C91.5839 162.85 91.0289 162.625 90.4289 162.505C89.8589 162.355 89.0939 162.28 88.1339 162.28C86.8739 162.28 85.7639 162.445 84.8039 162.775C83.8439 163.105 82.9139 163.54 82.0139 164.08L81.2939 161.38C83.3039 160.21 85.7039 159.625 88.4939 159.625C89.6039 159.625 90.6539 159.73 91.6439 159.94C92.6339 160.12 93.5039 160.45 94.2539 160.93C95.1239 161.47 95.8139 162.235 96.3239 163.225C96.8339 164.215 97.0889 165.445 97.0889 166.915V181H94.6139ZM86.6489 178.885C87.8789 178.885 89.1839 178.495 90.5639 177.715C91.9439 176.935 93.0689 175.81 93.9389 174.34V170.155H93.5339C92.3039 170.155 91.0739 170.2 89.8439 170.29C88.6139 170.38 87.4889 170.605 86.4689 170.965C85.4789 171.325 84.6689 171.85 84.0389 172.54C83.4089 173.2 83.0939 174.115 83.0939 175.285C83.0939 176.455 83.4089 177.355 84.0389 177.985C84.6989 178.585 85.5689 178.885 86.6489 178.885ZM104.831 162.415H101.366V160.75L104.921 160.3L105.596 154.045H107.981V160.3H112.841V162.415H107.981V176.77C107.981 177.73 108.116 178.36 108.386 178.66C108.686 178.96 109.136 179.11 109.736 179.11C110.426 179.11 111.041 179.005 111.581 178.795C112.121 178.585 112.601 178.33 113.021 178.03L113.651 180.415C113.141 180.655 112.466 180.895 111.626 181.135C110.816 181.375 109.916 181.495 108.926 181.495C107.966 181.495 107.216 181.36 106.676 181.09C106.136 180.82 105.731 180.46 105.461 180.01C105.191 179.56 105.011 179.065 104.921 178.525C104.861 177.955 104.831 177.4 104.831 176.86V162.415ZM124.067 162.145C122.627 162.145 121.577 162.415 120.917 162.955C120.287 163.465 119.972 164.17 119.972 165.07C119.972 165.37 120.017 165.685 120.107 166.015C120.197 166.345 120.362 166.66 120.602 166.96C120.872 167.23 121.217 167.5 121.637 167.77C122.087 168.01 122.672 168.205 123.392 168.355L126.587 169.075C127.847 169.345 128.852 169.72 129.602 170.2C130.382 170.65 130.982 171.145 131.402 171.685C131.822 172.225 132.092 172.78 132.212 173.35C132.362 173.89 132.437 174.4 132.437 174.88C132.437 175.81 132.242 176.68 131.852 177.49C131.492 178.3 130.952 179.005 130.232 179.605C129.542 180.205 128.687 180.67 127.667 181C126.647 181.36 125.507 181.54 124.247 181.54C122.657 181.54 121.187 181.315 119.837 180.865C118.487 180.385 117.407 179.86 116.597 179.29L117.407 176.365C118.487 177.355 119.687 178.075 121.007 178.525C122.327 178.975 123.512 179.2 124.562 179.2C126.062 179.2 127.202 178.84 127.982 178.12C128.762 177.37 129.152 176.59 129.152 175.78C129.152 175.51 129.137 175.21 129.107 174.88C129.077 174.52 128.957 174.16 128.747 173.8C128.537 173.44 128.222 173.11 127.802 172.81C127.382 172.48 126.782 172.225 126.002 172.045L121.682 170.965C120.692 170.725 119.882 170.41 119.252 170.02C118.622 169.63 118.127 169.21 117.767 168.76C117.407 168.28 117.152 167.785 117.002 167.275C116.852 166.735 116.777 166.195 116.777 165.655C116.777 163.825 117.452 162.37 118.802 161.29C120.182 160.18 122.012 159.625 124.292 159.625C125.462 159.625 126.722 159.79 128.072 160.12C129.422 160.42 130.562 160.87 131.492 161.47L130.637 164.17C130.037 163.66 129.137 163.195 127.937 162.775C126.767 162.355 125.477 162.145 124.067 162.145ZM163.596 181H159.771L155.406 171.01H142.131L138.171 181H134.571L146.451 151.3H150.546L163.596 181ZM143.391 167.86H154.011L148.431 155.08L143.391 167.86ZM177.843 159.625C179.373 159.625 180.708 159.925 181.848 160.525C182.988 161.125 183.933 161.92 184.683 162.91C185.433 163.9 185.988 165.055 186.348 166.375C186.738 167.665 186.933 169.03 186.933 170.47C186.933 171.97 186.723 173.395 186.303 174.745C185.913 176.065 185.313 177.235 184.503 178.255C183.723 179.245 182.733 180.04 181.533 180.64C180.333 181.24 178.938 181.54 177.348 181.54C175.338 181.54 173.688 181.105 172.398 180.235C171.108 179.365 170.268 178.285 169.878 176.995V192.7H166.728V160.3H169.203L169.563 164.17H169.743C170.103 163.63 170.538 163.09 171.048 162.55C171.588 161.98 172.203 161.485 172.893 161.065C173.583 160.645 174.333 160.3 175.143 160.03C175.983 159.76 176.883 159.625 177.843 159.625ZM177.033 162.28C175.593 162.28 174.243 162.67 172.983 163.45C171.753 164.23 170.718 165.355 169.878 166.825V173.44C170.148 174.31 170.538 175.075 171.048 175.735C171.558 176.395 172.143 176.965 172.803 177.445C173.493 177.925 174.213 178.285 174.963 178.525C175.743 178.765 176.523 178.885 177.303 178.885C178.353 178.885 179.268 178.675 180.048 178.255C180.828 177.835 181.473 177.25 181.983 176.5C182.523 175.75 182.928 174.88 183.198 173.89C183.468 172.9 183.603 171.835 183.603 170.695C183.603 169.615 183.468 168.565 183.198 167.545C182.958 166.525 182.568 165.625 182.028 164.845C181.488 164.065 180.798 163.45 179.958 163C179.148 162.52 178.173 162.28 177.033 162.28ZM203.727 159.625C205.257 159.625 206.592 159.925 207.732 160.525C208.872 161.125 209.817 161.92 210.567 162.91C211.317 163.9 211.872 165.055 212.232 166.375C212.622 167.665 212.817 169.03 212.817 170.47C212.817 171.97 212.607 173.395 212.187 174.745C211.797 176.065 211.197 177.235 210.387 178.255C209.607 179.245 208.617 180.04 207.417 180.64C206.217 181.24 204.822 181.54 203.232 181.54C201.222 181.54 199.572 181.105 198.282 180.235C196.992 179.365 196.152 178.285 195.762 176.995V192.7H192.612V160.3H195.087L195.447 164.17H195.627C195.987 163.63 196.422 163.09 196.932 162.55C197.472 161.98 198.087 161.485 198.777 161.065C199.467 160.645 200.217 160.3 201.027 160.03C201.867 159.76 202.767 159.625 203.727 159.625ZM202.917 162.28C201.477 162.28 200.127 162.67 198.867 163.45C197.637 164.23 196.602 165.355 195.762 166.825V173.44C196.032 174.31 196.422 175.075 196.932 175.735C197.442 176.395 198.027 176.965 198.687 177.445C199.377 177.925 200.097 178.285 200.847 178.525C201.627 178.765 202.407 178.885 203.187 178.885C204.237 178.885 205.152 178.675 205.932 178.255C206.712 177.835 207.357 177.25 207.867 176.5C208.407 175.75 208.812 174.88 209.082 173.89C209.352 172.9 209.487 171.835 209.487 170.695C209.487 169.615 209.352 168.565 209.082 167.545C208.842 166.525 208.452 165.625 207.912 164.845C207.372 164.065 206.682 163.45 205.842 163C205.032 162.52 204.057 162.28 202.917 162.28Z" fill="#44B253"/>
</g>
<defs>
<filter id="filter0_d_0_1" x="35.0662" y="2.15186" width="147.359" height="144.631" filterUnits="userSpaceOnUse" color-interpolation-filters="sRGB">
<feFlood flood-opacity="0" result="BackgroundImageFix"/>
<feColorMatrix in="SourceAlpha" type="matrix" values="0 0 0 0 0 0 0 0 0 0 0 0 0 0 0 0 0 0 127 0" result="hardAlpha"/>
<feOffset dy="4"/>
<feGaussianBlur stdDeviation="2"/>
<feComposite in2="hardAlpha" operator="out"/>
<feColorMatrix type="matrix" values="0 0 0 0 0 0 0 0 0 0 0 0 0 0 0 0 0 0 0.25 0"/>
<feBlend mode="normal" in2="BackgroundImageFix" result="effect1_dropShadow_0_1"/>
<feBlend mode="normal" in="SourceGraphic" in2="effect1_dropShadow_0_1" result="shape"/>
</filter>
<filter id="filter1_i_0_1" x="54.6413" y="15.6925" width="109.594" height="112.564" filterUnits="userSpaceOnUse" color-interpolation-filters="sRGB">
<feFlood flood-opacity="0" result="BackgroundImageFix"/>
<feBlend mode="normal" in="SourceGraphic" in2="BackgroundImageFix" result="shape"/>
<feColorMatrix in="SourceAlpha" type="matrix" values="0 0 0 0 0 0 0 0 0 0 0 0 0 0 0 0 0 0 127 0" result="hardAlpha"/>
<feOffset dy="4"/>
<feGaussianBlur stdDeviation="2"/>
<feComposite in2="hardAlpha" operator="arithmetic" k2="-1" k3="1"/>
<feColorMatrix type="matrix" values="0 0 0 0 0 0 0 0 0 0 0 0 0 0 0 0 0 0 0.25 0"/>
<feBlend mode="normal" in2="shape" result="effect1_innerShadow_0_1"/>
</filter>
<filter id="filter2_d_0_1" x="66" y="32" width="86" height="86" filterUnits="userSpaceOnUse" color-interpolation-filters="sRGB">
<feFlood flood-opacity="0" result="BackgroundImageFix"/>
<feColorMatrix in="SourceAlpha" type="matrix" values="0 0 0 0 0 0 0 0 0 0 0 0 0 0 0 0 0 0 127 0" result="hardAlpha"/>
<feOffset dy="4"/>
<feGaussianBlur stdDeviation="2"/>
<feComposite in2="hardAlpha" operator="out"/>
<feColorMatrix type="matrix" values="0 0 0 0 0 0 0 0 0 0 0 0 0 0 0 0 0 0 0.25 0"/>
<feBlend mode="normal" in2="BackgroundImageFix" result="effect1_dropShadow_0_1"/>
<feBlend mode="normal" in="SourceGraphic" in2="effect1_dropShadow_0_1" result="shape"/>
</filter>
<filter id="filter3_d_0_1" x="181.962" y="109.558" width="20.3519" height="29.6046" filterUnits="userSpaceOnUse" color-interpolation-filters="sRGB">
<feFlood flood-opacity="0" result="BackgroundImageFix"/>
<feColorMatrix in="SourceAlpha" type="matrix" values="0 0 0 0 0 0 0 0 0 0 0 0 0 0 0 0 0 0 127 0" result="hardAlpha"/>
<feOffset dy="4"/>
<feGaussianBlur stdDeviation="2"/>
<feComposite in2="hardAlpha" operator="out"/>
<feColorMatrix type="matrix" values="0 0 0 0 0 0 0 0 0 0 0 0 0 0 0 0 0 0 0.25 0"/>
<feBlend mode="normal" in2="BackgroundImageFix" result="effect1_dropShadow_0_1"/>
<feBlend mode="normal" in="SourceGraphic" in2="effect1_dropShadow_0_1" result="shape"/>
</filter>
<filter id="filter4_d_0_1" x="174.847" y="106.743" width="17.4827" height="38.0608" filterUnits="userSpaceOnUse" color-interpolation-filters="sRGB">
<feFlood flood-opacity="0" result="BackgroundImageFix"/>
<feColorMatrix in="SourceAlpha" type="matrix" values="0 0 0 0 0 0 0 0 0 0 0 0 0 0 0 0 0 0 127 0" result="hardAlpha"/>
<feOffset dy="4"/>
<feGaussianBlur stdDeviation="2"/>
<feComposite in2="hardAlpha" operator="out"/>
<feColorMatrix type="matrix" values="0 0 0 0 0 0 0 0 0 0 0 0 0 0 0 0 0 0 0.25 0"/>
<feBlend mode="normal" in2="BackgroundImageFix" result="effect1_dropShadow_0_1"/>
<feBlend mode="normal" in="SourceGraphic" in2="effect1_dropShadow_0_1" result="shape"/>
</filter>
<filter id="filter5_d_0_1" x="192.395" y="103.568" width="15.1572" height="24.9414" filterUnits="userSpaceOnUse" color-interpolation-filters="sRGB">
<feFlood flood-opacity="0" result="BackgroundImageFix"/>
<feColorMatrix in="SourceAlpha" type="matrix" values="0 0 0 0 0 0 0 0 0 0 0 0 0 0 0 0 0 0 127 0" result="hardAlpha"/>
<feOffset dy="4"/>
<feGaussianBlur stdDeviation="2"/>
<feComposite in2="hardAlpha" operator="out"/>
<feColorMatrix type="matrix" values="0 0 0 0 0 0 0 0 0 0 0 0 0 0 0 0 0 0 0.25 0"/>
<feBlend mode="normal" in2="BackgroundImageFix" result="effect1_dropShadow_0_1"/>
<feBlend mode="normal" in="SourceGraphic" in2="effect1_dropShadow_0_1" result="shape"/>
</filter>
<filter id="filter6_d_0_1" x="198.258" y="98.1534" width="15.4198" height="24.4492" filterUnits="userSpaceOnUse" color-interpolation-filters="sRGB">
<feFlood flood-opacity="0" result="BackgroundImageFix"/>
<feColorMatrix in="SourceAlpha" type="matrix" values="0 0 0 0 0 0 0 0 0 0 0 0 0 0 0 0 0 0 127 0" result="hardAlpha"/>
<feOffset dy="4"/>
<feGaussianBlur stdDeviation="2"/>
<feComposite in2="hardAlpha" operator="out"/>
<feColorMatrix type="matrix" values="0 0 0 0 0 0 0 0 0 0 0 0 0 0 0 0 0 0 0.25 0"/>
<feBlend mode="normal" in2="BackgroundImageFix" result="effect1_dropShadow_0_1"/>
<feBlend mode="normal" in="SourceGraphic" in2="effect1_dropShadow_0_1" result="shape"/>
</filter>
<filter id="filter7_d_0_1" x="198.971" y="85.5729" width="20.6595" height="31.5266" filterUnits="userSpaceOnUse" color-interpolation-filters="sRGB">
<feFlood flood-opacity="0" result="BackgroundImageFix"/>
<feColorMatrix in="SourceAlpha" type="matrix" values="0 0 0 0 0 0 0 0 0 0 0 0 0 0 0 0 0 0 127 0" result="hardAlpha"/>
<feOffset dy="4"/>
<feGaussianBlur stdDeviation="2"/>
<feComposite in2="hardAlpha" operator="out"/>
<feColorMatrix type="matrix" values="0 0 0 0 0 0 0 0 0 0 0 0 0 0 0 0 0 0 0.25 0"/>
<feBlend mode="normal" in2="BackgroundImageFix" result="effect1_dropShadow_0_1"/>
<feBlend mode="normal" in="SourceGraphic" in2="effect1_dropShadow_0_1" result="shape"/>
</filter>
<filter id="filter8_d_0_1" x="163.212" y="110.287" width="23.9618" height="44.9476" filterUnits="userSpaceOnUse" color-interpolation-filters="sRGB">
<feFlood flood-opacity="0" result="BackgroundImageFix"/>
<feColorMatrix in="SourceAlpha" type="matrix" values="0 0 0 0 0 0 0 0 0 0 0 0 0 0 0 0 0 0 127 0" result="hardAlpha"/>
<feOffset dy="4"/>
<feGaussianBlur stdDeviation="2"/>
<feComposite in2="hardAlpha" operator="out"/>
<feColorMatrix type="matrix" values="0 0 0 0 0 0 0 0 0 0 0 0 0 0 0 0 0 0 0.25 0"/>
<feBlend mode="normal" in2="BackgroundImageFix" result="effect1_dropShadow_0_1"/>
<feBlend mode="normal" in="SourceGraphic" in2="effect1_dropShadow_0_1" result="shape"/>
</filter>
<filter id="filter9_d_0_1" x="0.969666" y="147.7" width="215.847" height="53" filterUnits="userSpaceOnUse" color-interpolation-filters="sRGB">
<feFlood flood-opacity="0" result="BackgroundImageFix"/>
<feColorMatrix in="SourceAlpha" type="matrix" values="0 0 0 0 0 0 0 0 0 0 0 0 0 0 0 0 0 0 127 0" result="hardAlpha"/>
<feOffset dy="4"/>
<feGaussianBlur stdDeviation="2"/>
<feComposite in2="hardAlpha" operator="out"/>
<feColorMatrix type="matrix" values="0 0 0 0 0 0 0 0 0 0 0 0 0 0 0 0 0 0 0.25 0"/>
<feBlend mode="normal" in2="BackgroundImageFix" result="effect1_dropShadow_0_1"/>
<feBlend mode="normal" in="SourceGraphic" in2="effect1_dropShadow_0_1" result="shape"/>
</filter>
</defs>
</svg>
