<svg width="290" height="209" viewBox="0 0 290 209" fill="none" xmlns="http://www.w3.org/2000/svg">
<rect width="290" height="209" fill="white"/>
<g filter="url(#filter0_d_0_1)">
<path d="M142.757 140.66C160.001 143.755 177.842 140.49 192.716 131.523L219.909 144.782L209.112 117.805C220.388 104.896 226.177 88.4074 225.347 71.6315C224.517 54.8552 217.125 38.9987 204.627 27.2314C192.127 15.4626 175.441 8.65381 157.896 8.17852C140.351 7.70322 123.254 13.5969 110.017 24.6723C96.7814 35.7468 88.3843 51.1808 86.4795 67.8851C84.5749 84.5877 89.298 101.357 99.7219 114.848C110.148 128.342 125.512 137.565 142.757 140.66Z" fill="white"/>
</g>
<g filter="url(#filter1_i_0_1)">
<path d="M146.24 126.962C159.802 129.425 173.832 126.836 185.526 119.716L206.914 130.257L198.417 108.821C207.281 98.5686 211.83 85.4703 211.172 72.1422C210.515 58.8139 204.698 46.2147 194.867 36.8628C185.034 27.5098 171.91 22.0962 158.112 21.7142C144.315 21.3321 130.871 26.0101 120.464 34.8057C110.058 43.6006 103.458 55.8603 101.964 69.1308C100.471 82.3998 104.189 95.7235 112.39 106.444C120.593 117.167 132.678 124.499 146.24 126.962Z" fill="#44B253"/>
</g>
<g filter="url(#filter2_d_0_1)">
<mask id="path-4-inside-1_0_1" fill="white">
<path d="M177.393 86.9511C178.852 86.9511 180.194 87.4743 181.151 88.4335L193.457 100.788C195.572 102.91 195.505 106.437 193.302 108.646L190.472 111.427L189.786 111.969C188.347 113.093 186.724 114.014 184.976 114.702C183.353 115.331 181.75 115.738 180.069 115.942C179.934 115.952 179.47 116 178.687 116C174.138 116 157.794 114.469 138.243 94.8576C121.744 78.3081 115.658 66.1575 117.242 52.9314C117.436 51.323 117.832 49.7145 118.469 48.0286C119.155 46.2554 120.073 44.6276 121.203 43.1839L121.483 42.7188L124.507 39.6666C125.559 38.6007 127.047 38 128.593 38C130.061 38 131.394 38.5329 132.35 39.4922L144.666 51.8365C146.782 53.9585 146.704 57.4855 144.502 59.7043L137.837 66.3901L138.812 68.1438L138.831 68.1781C141.032 72.1574 144.035 77.5882 149.766 83.3272C155.477 89.0652 160.889 92.0782 164.839 94.277L164.855 94.286L166.652 95.284L173.307 88.6079C174.36 87.5518 175.847 86.9511 177.393 86.9511Z"/>
</mask>
<path d="M177.393 86.9511C178.852 86.9511 180.194 87.4743 181.151 88.4335L193.457 100.788C195.572 102.91 195.505 106.437 193.302 108.646L190.472 111.427L189.786 111.969C188.347 113.093 186.724 114.014 184.976 114.702C183.353 115.331 181.75 115.738 180.069 115.942C179.934 115.952 179.47 116 178.687 116C174.138 116 157.794 114.469 138.243 94.8576C121.744 78.3081 115.658 66.1575 117.242 52.9314C117.436 51.323 117.832 49.7145 118.469 48.0286C119.155 46.2554 120.073 44.6276 121.203 43.1839L121.483 42.7188L124.507 39.6666C125.559 38.6007 127.047 38 128.593 38C130.061 38 131.394 38.5329 132.35 39.4922L144.666 51.8365C146.782 53.9585 146.704 57.4855 144.502 59.7043L137.837 66.3901L138.812 68.1438L138.831 68.1781C141.032 72.1574 144.035 77.5882 149.766 83.3272C155.477 89.0652 160.889 92.0782 164.839 94.277L164.855 94.286L166.652 95.284L173.307 88.6079C174.36 87.5518 175.847 86.9511 177.393 86.9511Z" fill="#FAFAFA"/>
<path d="M177.393 86.9511C178.852 86.9511 180.194 87.4743 181.151 88.4335L193.457 100.788C195.572 102.91 195.505 106.437 193.302 108.646L190.472 111.427L189.786 111.969C188.347 113.093 186.724 114.014 184.976 114.702C183.353 115.331 181.75 115.738 180.069 115.942C179.934 115.952 179.47 116 178.687 116C174.138 116 157.794 114.469 138.243 94.8576C121.744 78.3081 115.658 66.1575 117.242 52.9314C117.436 51.323 117.832 49.7145 118.469 48.0286C119.155 46.2554 120.073 44.6276 121.203 43.1839L121.483 42.7188L124.507 39.6666C125.559 38.6007 127.047 38 128.593 38C130.061 38 131.394 38.5329 132.35 39.4922L144.666 51.8365C146.782 53.9585 146.704 57.4855 144.502 59.7043L137.837 66.3901L138.812 68.1438L138.831 68.1781C141.032 72.1574 144.035 77.5882 149.766 83.3272C155.477 89.0652 160.889 92.0782 164.839 94.277L164.855 94.286L166.652 95.284L173.307 88.6079C174.36 87.5518 175.847 86.9511 177.393 86.9511Z" stroke="white" stroke-width="10" mask="url(#path-4-inside-1_0_1)"/>
</g>
<g filter="url(#filter3_d_0_1)">
<path d="M233.962 136.163C235.131 133.1 234.705 129.182 234.055 122.42C234.421 122.21 234.824 122.841 234.824 122.841L237.6 131.459C237.626 132.268 237.567 132.539 236.944 131.745C236.319 127.661 236.259 125.186 236.718 120.409C237.791 119.105 238.73 122.165 240.507 128.774C240.446 129.425 240.343 129.63 239.907 129.414C238.925 121.812 238.659 118.495 239.513 117.018C239.847 116.298 240.142 116.445 240.788 117.313L242.326 124.769C242.803 125.98 243.266 125.961 244.313 125.131" stroke="#F32B2B" stroke-width="2" stroke-linecap="round" stroke-linejoin="round" shape-rendering="crispEdges"/>
</g>
<g filter="url(#filter4_d_0_1)">
<path d="M229.079 141.803C231.085 132.355 231.097 126.614 228.929 115.506C227.841 113.567 227.265 112.718 226.847 115.657C228.788 127.214 229.971 131.572 232.286 135.492C233.212 136.743 233.651 136.829 234.33 136.208" stroke="#F32B2B" stroke-width="2" stroke-linecap="round" stroke-linejoin="round" shape-rendering="crispEdges"/>
</g>
<g filter="url(#filter5_d_0_1)">
<path d="M244.395 125.509C244.96 123.602 245.088 122.403 244.92 119.988C244.683 116.768 244.698 115.129 245.164 112.701C244.657 115.9 245.201 117.445 246.852 119.997C247.988 121.293 248.45 121.116 249.196 120.392C249.62 116.739 249.252 114.679 247.171 110.976C246.127 110.303 245.713 110.414 245.352 111.674C245.539 113.408 245.946 114.06 246.927 114.956C247.69 115.497 248.31 115.079 249.552 113.812" stroke="#F32B2B" stroke-width="2" stroke-linecap="round" stroke-linejoin="round" shape-rendering="crispEdges"/>
</g>
<g filter="url(#filter6_d_0_1)">
<path d="M250.277 119.603L250.671 112.155L250.258 105.154C253.009 108.602 253.873 110.388 254.553 113.392C254.631 113.918 254.655 114.336 254.604 114.657M254.604 114.657C254.463 115.551 253.745 115.685 252.04 115.244C250.729 113.9 250.61 113.482 251.758 113.476C252.769 113.715 253.227 113.957 253.859 114.545C254.113 114.7 254.336 114.751 254.604 114.657ZM254.604 114.657C254.883 114.56 255.212 114.305 255.678 113.847" stroke="#F32B2B" stroke-width="2" stroke-linecap="round" stroke-linejoin="round" shape-rendering="crispEdges"/>
</g>
<g filter="url(#filter7_d_0_1)">
<path d="M254.665 114.099C254.665 114.099 255.019 113.626 255.066 112.071C255.189 109.309 254.786 107.578 254.365 104.498C253.984 102.32 254.418 100.255 254.121 98.5563L253.453 93.1192C253.345 92.5025 252.716 92.403 252.548 92.8441C252.187 93.7781 252.612 95.9522 253.165 99.1621C254.023 103.102 254.053 102.401 254.766 105.776C255.36 108.292 255.608 109.945 256.923 110.506C257.962 111.171 258.57 110.85 259.661 110.068C260.291 109.295 260.735 108.309 261.63 105.903L250.971 101.914L256.821 95.6784" stroke="#F32B2B" stroke-width="2" stroke-linecap="round" stroke-linejoin="round" shape-rendering="crispEdges"/>
</g>
<path d="M255.5 102C255.37 102.611 255.284 104.381 255.5 105L260 107L261.5 104.5L255.5 102Z" fill="white"/>
<path d="M252.333 101.617L250.5 103L253.5 105C253.5 104.5 253 102.5 253 101.296L252.333 101.617Z" fill="white"/>
<g filter="url(#filter8_d_0_1)">
<path d="M215.212 149.836C219.559 153.981 220.623 152.456 221.736 147.54C222.205 142.998 220.358 132.706 217.703 116.697C217.703 116.697 230.557 145.294 229.155 142.174C227.752 139.055 223.995 137.934 223.995 137.934C220.409 136.53 219.449 137.276 218.187 138.197C216.926 139.118 216.148 140.793 216.332 141.867C216.516 142.942 217.272 144.253 218.867 144.246C220.463 144.24 222.676 142.246 223.824 141.081C224.972 139.916 225.201 138.901 226.252 137.647C226.967 136.793 228.202 135.568 228.202 135.568" stroke="#F32B2B" stroke-width="2" stroke-linecap="round" shape-rendering="crispEdges"/>
</g>
<g filter="url(#filter9_d_0_1)">
<path d="M76.3146 162.43L67.9446 187H63.6696L51.9696 157.3H55.7946L65.7846 182.725L74.4696 157.3H78.2947L87.5196 182.635L96.5647 157.3H100.165L89.5897 187H85.3146L76.3146 162.43ZM118.487 187V173.32C118.487 171.49 118.082 170.2 117.272 169.45C116.462 168.67 115.427 168.28 114.167 168.28C113.417 168.28 112.667 168.4 111.917 168.64C111.197 168.88 110.522 169.24 109.892 169.72C109.262 170.17 108.707 170.74 108.227 171.43C107.747 172.09 107.372 172.855 107.102 173.725V187H103.952V153.7H107.102V170.17C107.492 168.91 108.332 167.845 109.622 166.975C110.942 166.075 112.607 165.625 114.617 165.625C115.577 165.625 116.477 165.76 117.317 166.03C118.187 166.27 118.937 166.675 119.567 167.245C120.197 167.815 120.692 168.565 121.052 169.495C121.442 170.425 121.637 171.565 121.637 172.915V187H118.487ZM141.614 187L141.254 183.31H141.074C140.714 183.88 140.234 184.42 139.634 184.93C139.034 185.44 138.359 185.89 137.609 186.28C136.889 186.67 136.094 186.97 135.224 187.18C134.384 187.42 133.544 187.54 132.704 187.54C130.724 187.54 129.239 186.97 128.249 185.83C127.259 184.66 126.764 183.205 126.764 181.465C126.764 179.755 127.199 178.39 128.069 177.37C128.939 176.35 130.004 175.585 131.264 175.075C132.524 174.565 133.844 174.235 135.224 174.085C136.634 173.935 137.864 173.86 138.914 173.86H140.939V173.32C140.939 172.18 140.774 171.31 140.444 170.71C140.144 170.11 139.694 169.6 139.094 169.18C138.584 168.85 138.029 168.625 137.429 168.505C136.859 168.355 136.094 168.28 135.134 168.28C133.874 168.28 132.764 168.445 131.804 168.775C130.844 169.105 129.914 169.54 129.014 170.08L128.294 167.38C130.304 166.21 132.704 165.625 135.494 165.625C136.604 165.625 137.654 165.73 138.644 165.94C139.634 166.12 140.504 166.45 141.254 166.93C142.124 167.47 142.814 168.235 143.324 169.225C143.834 170.215 144.089 171.445 144.089 172.915V187H141.614ZM133.649 184.885C134.879 184.885 136.184 184.495 137.564 183.715C138.944 182.935 140.069 181.81 140.939 180.34V176.155H140.534C139.304 176.155 138.074 176.2 136.844 176.29C135.614 176.38 134.489 176.605 133.469 176.965C132.479 177.325 131.669 177.85 131.039 178.54C130.409 179.2 130.094 180.115 130.094 181.285C130.094 182.455 130.409 183.355 131.039 183.985C131.699 184.585 132.569 184.885 133.649 184.885ZM151.831 168.415H148.366V166.75L151.921 166.3L152.596 160.045H154.981V166.3H159.841V168.415H154.981V182.77C154.981 183.73 155.116 184.36 155.386 184.66C155.686 184.96 156.136 185.11 156.736 185.11C157.426 185.11 158.041 185.005 158.581 184.795C159.121 184.585 159.601 184.33 160.021 184.03L160.651 186.415C160.141 186.655 159.466 186.895 158.626 187.135C157.816 187.375 156.916 187.495 155.926 187.495C154.966 187.495 154.216 187.36 153.676 187.09C153.136 186.82 152.731 186.46 152.461 186.01C152.191 185.56 152.011 185.065 151.921 184.525C151.861 183.955 151.831 183.4 151.831 182.86V168.415ZM171.067 168.145C169.627 168.145 168.577 168.415 167.917 168.955C167.287 169.465 166.972 170.17 166.972 171.07C166.972 171.37 167.017 171.685 167.107 172.015C167.197 172.345 167.362 172.66 167.602 172.96C167.872 173.23 168.217 173.5 168.637 173.77C169.087 174.01 169.672 174.205 170.392 174.355L173.587 175.075C174.847 175.345 175.852 175.72 176.602 176.2C177.382 176.65 177.982 177.145 178.402 177.685C178.822 178.225 179.092 178.78 179.212 179.35C179.362 179.89 179.437 180.4 179.437 180.88C179.437 181.81 179.242 182.68 178.852 183.49C178.492 184.3 177.952 185.005 177.232 185.605C176.542 186.205 175.687 186.67 174.667 187C173.647 187.36 172.507 187.54 171.247 187.54C169.657 187.54 168.187 187.315 166.837 186.865C165.487 186.385 164.407 185.86 163.597 185.29L164.407 182.365C165.487 183.355 166.687 184.075 168.007 184.525C169.327 184.975 170.512 185.2 171.562 185.2C173.062 185.2 174.202 184.84 174.982 184.12C175.762 183.37 176.152 182.59 176.152 181.78C176.152 181.51 176.137 181.21 176.107 180.88C176.077 180.52 175.957 180.16 175.747 179.8C175.537 179.44 175.222 179.11 174.802 178.81C174.382 178.48 173.782 178.225 173.002 178.045L168.682 176.965C167.692 176.725 166.882 176.41 166.252 176.02C165.622 175.63 165.127 175.21 164.767 174.76C164.407 174.28 164.152 173.785 164.002 173.275C163.852 172.735 163.777 172.195 163.777 171.655C163.777 169.825 164.452 168.37 165.802 167.29C167.182 166.18 169.012 165.625 171.292 165.625C172.462 165.625 173.722 165.79 175.072 166.12C176.422 166.42 177.562 166.87 178.492 167.47L177.637 170.17C177.037 169.66 176.137 169.195 174.937 168.775C173.767 168.355 172.477 168.145 171.067 168.145ZM210.596 187H206.771L202.406 177.01H189.131L185.171 187H181.571L193.451 157.3H197.546L210.596 187ZM190.391 173.86H201.011L195.431 161.08L190.391 173.86ZM224.843 165.625C226.373 165.625 227.708 165.925 228.848 166.525C229.988 167.125 230.933 167.92 231.683 168.91C232.433 169.9 232.988 171.055 233.348 172.375C233.738 173.665 233.933 175.03 233.933 176.47C233.933 177.97 233.723 179.395 233.303 180.745C232.913 182.065 232.313 183.235 231.503 184.255C230.723 185.245 229.733 186.04 228.533 186.64C227.333 187.24 225.938 187.54 224.348 187.54C222.338 187.54 220.688 187.105 219.398 186.235C218.108 185.365 217.268 184.285 216.878 182.995V198.7H213.728V166.3H216.203L216.563 170.17H216.743C217.103 169.63 217.538 169.09 218.048 168.55C218.588 167.98 219.203 167.485 219.893 167.065C220.583 166.645 221.333 166.3 222.143 166.03C222.983 165.76 223.883 165.625 224.843 165.625ZM224.033 168.28C222.593 168.28 221.243 168.67 219.983 169.45C218.753 170.23 217.718 171.355 216.878 172.825V179.44C217.148 180.31 217.538 181.075 218.048 181.735C218.558 182.395 219.143 182.965 219.803 183.445C220.493 183.925 221.213 184.285 221.963 184.525C222.743 184.765 223.523 184.885 224.303 184.885C225.353 184.885 226.268 184.675 227.048 184.255C227.828 183.835 228.473 183.25 228.983 182.5C229.523 181.75 229.928 180.88 230.198 179.89C230.468 178.9 230.603 177.835 230.603 176.695C230.603 175.615 230.468 174.565 230.198 173.545C229.958 172.525 229.568 171.625 229.028 170.845C228.488 170.065 227.798 169.45 226.958 169C226.148 168.52 225.173 168.28 224.033 168.28ZM250.727 165.625C252.257 165.625 253.592 165.925 254.732 166.525C255.872 167.125 256.817 167.92 257.567 168.91C258.317 169.9 258.872 171.055 259.232 172.375C259.622 173.665 259.817 175.03 259.817 176.47C259.817 177.97 259.607 179.395 259.187 180.745C258.797 182.065 258.197 183.235 257.387 184.255C256.607 185.245 255.617 186.04 254.417 186.64C253.217 187.24 251.822 187.54 250.232 187.54C248.222 187.54 246.572 187.105 245.282 186.235C243.992 185.365 243.152 184.285 242.762 182.995V198.7H239.612V166.3H242.087L242.447 170.17H242.627C242.987 169.63 243.422 169.09 243.932 168.55C244.472 167.98 245.087 167.485 245.777 167.065C246.467 166.645 247.217 166.3 248.027 166.03C248.867 165.76 249.767 165.625 250.727 165.625ZM249.917 168.28C248.477 168.28 247.127 168.67 245.867 169.45C244.637 170.23 243.602 171.355 242.762 172.825V179.44C243.032 180.31 243.422 181.075 243.932 181.735C244.442 182.395 245.027 182.965 245.687 183.445C246.377 183.925 247.097 184.285 247.847 184.525C248.627 184.765 249.407 184.885 250.187 184.885C251.237 184.885 252.152 184.675 252.932 184.255C253.712 183.835 254.357 183.25 254.867 182.5C255.407 181.75 255.812 180.88 256.082 179.89C256.352 178.9 256.487 177.835 256.487 176.695C256.487 175.615 256.352 174.565 256.082 173.545C255.842 172.525 255.452 171.625 254.912 170.845C254.372 170.065 253.682 169.45 252.842 169C252.032 168.52 251.057 168.28 249.917 168.28Z" fill="#44B253"/>
</g>
<defs>
<filter id="filter0_d_0_1" x="82.0662" y="8.15186" width="147.359" height="144.631" filterUnits="userSpaceOnUse" color-interpolation-filters="sRGB">
<feFlood flood-opacity="0" result="BackgroundImageFix"/>
<feColorMatrix in="SourceAlpha" type="matrix" values="0 0 0 0 0 0 0 0 0 0 0 0 0 0 0 0 0 0 127 0" result="hardAlpha"/>
<feOffset dy="4"/>
<feGaussianBlur stdDeviation="2"/>
<feComposite in2="hardAlpha" operator="out"/>
<feColorMatrix type="matrix" values="0 0 0 0 0 0 0 0 0 0 0 0 0 0 0 0 0 0 0.25 0"/>
<feBlend mode="normal" in2="BackgroundImageFix" result="effect1_dropShadow_0_1"/>
<feBlend mode="normal" in="SourceGraphic" in2="effect1_dropShadow_0_1" result="shape"/>
</filter>
<filter id="filter1_i_0_1" x="101.641" y="21.6925" width="109.594" height="112.564" filterUnits="userSpaceOnUse" color-interpolation-filters="sRGB">
<feFlood flood-opacity="0" result="BackgroundImageFix"/>
<feBlend mode="normal" in="SourceGraphic" in2="BackgroundImageFix" result="shape"/>
<feColorMatrix in="SourceAlpha" type="matrix" values="0 0 0 0 0 0 0 0 0 0 0 0 0 0 0 0 0 0 127 0" result="hardAlpha"/>
<feOffset dy="4"/>
<feGaussianBlur stdDeviation="2"/>
<feComposite in2="hardAlpha" operator="arithmetic" k2="-1" k3="1"/>
<feColorMatrix type="matrix" values="0 0 0 0 0 0 0 0 0 0 0 0 0 0 0 0 0 0 0.25 0"/>
<feBlend mode="normal" in2="shape" result="effect1_innerShadow_0_1"/>
</filter>
<filter id="filter2_d_0_1" x="113" y="38" width="86" height="86" filterUnits="userSpaceOnUse" color-interpolation-filters="sRGB">
<feFlood flood-opacity="0" result="BackgroundImageFix"/>
<feColorMatrix in="SourceAlpha" type="matrix" values="0 0 0 0 0 0 0 0 0 0 0 0 0 0 0 0 0 0 127 0" result="hardAlpha"/>
<feOffset dy="4"/>
<feGaussianBlur stdDeviation="2"/>
<feComposite in2="hardAlpha" operator="out"/>
<feColorMatrix type="matrix" values="0 0 0 0 0 0 0 0 0 0 0 0 0 0 0 0 0 0 0.25 0"/>
<feBlend mode="normal" in2="BackgroundImageFix" result="effect1_dropShadow_0_1"/>
<feBlend mode="normal" in="SourceGraphic" in2="effect1_dropShadow_0_1" result="shape"/>
</filter>
<filter id="filter3_d_0_1" x="228.962" y="115.558" width="20.3519" height="29.6046" filterUnits="userSpaceOnUse" color-interpolation-filters="sRGB">
<feFlood flood-opacity="0" result="BackgroundImageFix"/>
<feColorMatrix in="SourceAlpha" type="matrix" values="0 0 0 0 0 0 0 0 0 0 0 0 0 0 0 0 0 0 127 0" result="hardAlpha"/>
<feOffset dy="4"/>
<feGaussianBlur stdDeviation="2"/>
<feComposite in2="hardAlpha" operator="out"/>
<feColorMatrix type="matrix" values="0 0 0 0 0 0 0 0 0 0 0 0 0 0 0 0 0 0 0.25 0"/>
<feBlend mode="normal" in2="BackgroundImageFix" result="effect1_dropShadow_0_1"/>
<feBlend mode="normal" in="SourceGraphic" in2="effect1_dropShadow_0_1" result="shape"/>
</filter>
<filter id="filter4_d_0_1" x="221.847" y="112.743" width="17.4827" height="38.0608" filterUnits="userSpaceOnUse" color-interpolation-filters="sRGB">
<feFlood flood-opacity="0" result="BackgroundImageFix"/>
<feColorMatrix in="SourceAlpha" type="matrix" values="0 0 0 0 0 0 0 0 0 0 0 0 0 0 0 0 0 0 127 0" result="hardAlpha"/>
<feOffset dy="4"/>
<feGaussianBlur stdDeviation="2"/>
<feComposite in2="hardAlpha" operator="out"/>
<feColorMatrix type="matrix" values="0 0 0 0 0 0 0 0 0 0 0 0 0 0 0 0 0 0 0.25 0"/>
<feBlend mode="normal" in2="BackgroundImageFix" result="effect1_dropShadow_0_1"/>
<feBlend mode="normal" in="SourceGraphic" in2="effect1_dropShadow_0_1" result="shape"/>
</filter>
<filter id="filter5_d_0_1" x="239.395" y="109.568" width="15.1572" height="24.9414" filterUnits="userSpaceOnUse" color-interpolation-filters="sRGB">
<feFlood flood-opacity="0" result="BackgroundImageFix"/>
<feColorMatrix in="SourceAlpha" type="matrix" values="0 0 0 0 0 0 0 0 0 0 0 0 0 0 0 0 0 0 127 0" result="hardAlpha"/>
<feOffset dy="4"/>
<feGaussianBlur stdDeviation="2"/>
<feComposite in2="hardAlpha" operator="out"/>
<feColorMatrix type="matrix" values="0 0 0 0 0 0 0 0 0 0 0 0 0 0 0 0 0 0 0.25 0"/>
<feBlend mode="normal" in2="BackgroundImageFix" result="effect1_dropShadow_0_1"/>
<feBlend mode="normal" in="SourceGraphic" in2="effect1_dropShadow_0_1" result="shape"/>
</filter>
<filter id="filter6_d_0_1" x="245.258" y="104.153" width="15.4198" height="24.4492" filterUnits="userSpaceOnUse" color-interpolation-filters="sRGB">
<feFlood flood-opacity="0" result="BackgroundImageFix"/>
<feColorMatrix in="SourceAlpha" type="matrix" values="0 0 0 0 0 0 0 0 0 0 0 0 0 0 0 0 0 0 127 0" result="hardAlpha"/>
<feOffset dy="4"/>
<feGaussianBlur stdDeviation="2"/>
<feComposite in2="hardAlpha" operator="out"/>
<feColorMatrix type="matrix" values="0 0 0 0 0 0 0 0 0 0 0 0 0 0 0 0 0 0 0.25 0"/>
<feBlend mode="normal" in2="BackgroundImageFix" result="effect1_dropShadow_0_1"/>
<feBlend mode="normal" in="SourceGraphic" in2="effect1_dropShadow_0_1" result="shape"/>
</filter>
<filter id="filter7_d_0_1" x="245.971" y="91.5729" width="20.6595" height="31.5266" filterUnits="userSpaceOnUse" color-interpolation-filters="sRGB">
<feFlood flood-opacity="0" result="BackgroundImageFix"/>
<feColorMatrix in="SourceAlpha" type="matrix" values="0 0 0 0 0 0 0 0 0 0 0 0 0 0 0 0 0 0 127 0" result="hardAlpha"/>
<feOffset dy="4"/>
<feGaussianBlur stdDeviation="2"/>
<feComposite in2="hardAlpha" operator="out"/>
<feColorMatrix type="matrix" values="0 0 0 0 0 0 0 0 0 0 0 0 0 0 0 0 0 0 0.25 0"/>
<feBlend mode="normal" in2="BackgroundImageFix" result="effect1_dropShadow_0_1"/>
<feBlend mode="normal" in="SourceGraphic" in2="effect1_dropShadow_0_1" result="shape"/>
</filter>
<filter id="filter8_d_0_1" x="210.212" y="116.287" width="23.9618" height="44.9476" filterUnits="userSpaceOnUse" color-interpolation-filters="sRGB">
<feFlood flood-opacity="0" result="BackgroundImageFix"/>
<feColorMatrix in="SourceAlpha" type="matrix" values="0 0 0 0 0 0 0 0 0 0 0 0 0 0 0 0 0 0 127 0" result="hardAlpha"/>
<feOffset dy="4"/>
<feGaussianBlur stdDeviation="2"/>
<feComposite in2="hardAlpha" operator="out"/>
<feColorMatrix type="matrix" values="0 0 0 0 0 0 0 0 0 0 0 0 0 0 0 0 0 0 0.25 0"/>
<feBlend mode="normal" in2="BackgroundImageFix" result="effect1_dropShadow_0_1"/>
<feBlend mode="normal" in="SourceGraphic" in2="effect1_dropShadow_0_1" result="shape"/>
</filter>
<filter id="filter9_d_0_1" x="47.9697" y="153.7" width="215.847" height="53" filterUnits="userSpaceOnUse" color-interpolation-filters="sRGB">
<feFlood flood-opacity="0" result="BackgroundImageFix"/>
<feColorMatrix in="SourceAlpha" type="matrix" values="0 0 0 0 0 0 0 0 0 0 0 0 0 0 0 0 0 0 127 0" result="hardAlpha"/>
<feOffset dy="4"/>
<feGaussianBlur stdDeviation="2"/>
<feComposite in2="hardAlpha" operator="out"/>
<feColorMatrix type="matrix" values="0 0 0 0 0 0 0 0 0 0 0 0 0 0 0 0 0 0 0.25 0"/>
<feBlend mode="normal" in2="BackgroundImageFix" result="effect1_dropShadow_0_1"/>
<feBlend mode="normal" in="SourceGraphic" in2="effect1_dropShadow_0_1" result="shape"/>
</filter>
</defs>
</svg>
