<svg viewBox="0 0 170 70" stroke-width="2" stroke-linecap="round" xmlns="http://www.w3.org/2000/svg"> 
     <g transform="translate(0, 0)">
      <path style="stroke-dasharray:255; stroke-dashoffset:255; animation: dash 0.16666666666666666s linear 4s  forwards" d="M9.00207 38.8693C8.8931 49.4862 13.0895 49.0131 23.0016 44.5021C31.2858 39.6135 45.5198 24.7837 68 2C68 2 40.501 53.155 43.5009 47.5745C46.5007 41.9939 42.5009 35.7968 42.5009 35.7968C39.2394 29.4749 36.501 29.1399 33.0011 28.6278C29.5012 28.1157 25.5016 29.1399 24.0015 30.6761C22.5015 32.2123 21.5015 34.7727 24.0015 36.821C26.5016 38.8693 33.2714 39.3105 37.0011 39.3813C40.7308 39.4522 42.7738 38.5193 46.5008 38.3572C49.0368 38.2468 53.0005 38.3572 53.0005 38.3572"></path> 
      </g>
     
     <g transform="translate(49, 0)">
      <path style="stroke-dasharray:108; stroke-dashoffset:108; animation: dash 0.16666666666666666s linear 4.166666666666667s  forwards" d="M0 48.0286C18.843 39.1874 28.409 32.2582 43.5 16.0286C45.0268 12.2826 45.5383 10.5122 40 13.5286C23.8094 30.0081 18.4069 36.8031 15.5 44.5286C14.8662 47.2349 15.4066 47.9042 17.5 48.0286"></path> 
      </g>
     
     <g transform="translate(67, 0)">
      <path style="stroke-dasharray:145; stroke-dashoffset:145; animation: dash 0.16666666666666666s linear 4.333333333333333s  forwards" d="M1 46.5C7.91823 44.3028 13.7681 39.0155 24 30C24.9208 30.2158 24.5 31.5 24.5 31.5L14.5 45.5C13.1955 46.5122 12.6518 46.7648 13 45C18.8178 39.2561 22.8386 36.1849 31.5 31C35.3434 30.8057 31.7196 35.7157 23.5 46C22.3245 46.7089 21.8222 46.824 21.5 46C32.6113 35.5414 37.7118 31.1853 41.5 30.5C43.2196 30.0597 43.4345 30.6183 43 32.5L33 43.5C31.7302 45.5795 32.4861 46.1536 35.5 46.5"></path> 
      </g>
     
     <g transform="translate(102, 0)">
      <path style="stroke-dasharray:86; stroke-dashoffset:86; animation: dash 0.16666666666666666s linear 4.5s  forwards" d="M0 47.0625C4.05224 45.4844 6.24633 44.1985 10 41.0625C14.9847 36.8612 17.7335 34.8983 22.5 32.5625C16.3876 35.7777 14.6682 38.3477 13 43.5625C12.6163 46.5939 13.6328 46.9756 16 47.0625C22.7375 43.1905 25.5898 40.2243 28.5 33.0625C27.9905 30.9031 27.1602 30.5047 24.5 31.5625C21.9091 33.9012 21.4595 35.2148 21.5 37.5625C21.7904 39.2002 23.4541 39.4929 27.5 39.5625"></path> 
      </g>
     
     <g transform="translate(118, 0)">
      <path style="stroke-dasharray:70; stroke-dashoffset:70; animation: dash 0.16666666666666666s linear 4.666666666666667s  forwards" d="M0 47.5L13 39L24 30C22.5585 37.7162 20.935 40.9903 17 45.5C14.1572 48.2887 12.6196 48.2123 10 44.5C10.1891 41.1857 10.6983 40.5274 12.5 42C13.6808 43.5913 13.9921 44.4739 14 46C14.2863 47.0502 15.0811 47.4097 18 47.5"></path> 
      </g>
     
     <g transform="translate(136, 0)">
      <path style="stroke-dasharray:139; stroke-dashoffset:139; animation: dash 0.16666666666666666s linear 4.833333333333333s  forwards" d="M0 46.5C0 46.5 1.3395 46.3826 4 44.5633C8.78376 41.3817 11.0342 38.7688 15.5 34.5C18.5266 31.3758 22.6383 29.4379 25 27L33 19.5634C33.8568 18.6781 33.0399 17.7463 32.0443 18.0633C29.9277 18.7276 26.9754 21.9051 22.5 26.5C17.2884 32.3716 18.5 31.5634 14 36.5634C10.7434 40.3715 8.3795 42.6908 9.5 45.0634C10.0151 47.2077 11.4971 47.6028 14.5 48.0633C16.769 47.9402 19.1015 47.3199 24.5 45.5633L14.5 27H34"></path> <path stroke-width="0" d="M19.5 32.5C18.2813 33.0719 16.6917 34.4726 16 35.5L23 45.5L26 44.5L19.5 32.5Z"></path> <path stroke-width="0" d="M16.0001 28L13.5 28L15 33.5C16.1553 32.4728 17.2956 31.5807 18.5001 29.5L16.0001 28Z"></path>
      </g>
     </svg>