<?xml version="1.0" standalone="no"?>
<!DOCTYPE svg PUBLIC "-//W3C//DTD SVG 20010904//EN"
 "http://www.w3.org/TR/2001/REC-SVG-20010904/DTD/svg10.dtd">
<svg version="1.0" xmlns="http://www.w3.org/2000/svg"
 width="880.000000pt" height="880.000000pt" viewBox="0 0 880.000000 880.000000"
 preserveAspectRatio="xMidYMid meet">
<metadata>
Created by potrace 1.14, written by Peter Selinger 2001-2017
</metadata>
<g transform="translate(0.000000,880.000000) scale(0.100000,-0.100000)"
fill="#000000" stroke="none">
<path d="M4100 7775 c-965 -129 -1707 -820 -1881 -1750 -44 -238 -34 -587 25
-830 92 -377 284 -722 551 -990 337 -339 757 -551 1250 -631 166 -28 506 -25
679 4 72 13 164 31 205 42 176 45 412 139 541 214 34 20 67 36 73 36 7 0 199
-92 426 -205 228 -113 415 -204 417 -202 2 2 -72 193 -164 425 l-168 421 54
67 c384 479 538 1111 417 1709 -109 540 -435 1022 -900 1330 -268 178 -546
289 -865 345 -161 29 -500 36 -660 15z m-719 -664 c66 -43 543 -528 568 -578
28 -56 28 -139 0 -196 -12 -23 -85 -107 -166 -188 l-145 -147 77 -133 c260
-447 505 -691 948 -944 l118 -67 153 150 c136 134 159 152 206 166 66 20 84
20 146 1 44 -13 76 -41 326 -292 184 -184 282 -291 293 -315 22 -54 19 -143
-6 -194 -27 -57 -172 -193 -260 -245 -38 -23 -109 -55 -157 -72 -321 -113
-867 47 -1358 399 -169 121 -277 216 -490 428 -594 594 -837 1029 -837 1501 0
246 64 434 196 582 131 148 170 172 273 173 61 0 76 -4 115 -29z"/>
<path d="M8220 4993 c-43 -15 -49 -61 -28 -214 l11 -88 -41 -45 c-65 -71 -48
-126 22 -72 19 14 39 26 44 26 11 0 28 -88 37 -195 7 -78 11 -80 -64 24 -46
63 -75 77 -101 46 -12 -14 -9 -149 6 -277 8 -63 -8 -62 -41 3 -30 58 -76 86
-119 70 -30 -12 -33 -17 -53 -88 -13 -45 -17 -104 -17 -270 -1 -156 -4 -215
-13 -224 -7 -7 -13 -10 -13 -6 0 4 -13 74 -30 155 -27 132 -33 150 -60 175
-36 32 -40 33 -73 7 -18 -14 -30 -38 -38 -75 -11 -50 -14 -55 -40 -55 -35 0
-59 -24 -59 -58 0 -34 -15 -59 -24 -43 -10 16 -61 14 -75 -3 -9 -10 -8 -38 0
-112 15 -132 17 -390 3 -404 -8 -8 -20 9 -42 58 -30 64 -32 76 -32 178 0 215
-49 527 -93 593 -58 87 -129 51 -128 -64 0 -81 70 -424 118 -580 19 -64 23
-92 18 -137 -7 -55 -7 -56 -31 -46 -18 8 -27 8 -39 -2 -9 -8 -19 -9 -24 -4 -4
5 -74 158 -156 339 -198 443 -178 406 -217 393 -18 -6 -34 -12 -36 -13 -2 -2
17 -124 41 -271 77 -467 82 -497 68 -502 -38 -13 -110 -74 -135 -116 -83 -134
20 -289 158 -236 l26 10 0 -58 c0 -63 -32 -173 -56 -193 -19 -16 -46 -3 -108
50 -26 23 -49 41 -52 41 -18 0 -44 -24 -44 -40 0 -38 138 -140 188 -140 87 0
152 129 152 302 l0 88 48 47 c27 27 56 59 65 73 l17 24 31 -29 c17 -17 39 -46
49 -66 22 -42 43 -53 71 -39 13 7 19 21 19 43 0 31 31 238 37 246 2 3 18 -10
36 -27 38 -36 85 -43 109 -14 9 9 19 44 22 77 4 33 9 80 13 103 l6 44 14 -30
c17 -35 32 -43 62 -35 32 8 37 49 16 123 -24 83 -33 315 -10 265 7 -17 20 -82
29 -144 9 -63 21 -120 27 -127 19 -23 57 -17 76 12 17 26 16 31 -10 133 -25
96 -49 295 -33 280 3 -3 17 -59 31 -124 32 -153 53 -177 134 -155 34 9 42 16
51 48 6 20 14 69 17 108 l6 72 35 -24 c19 -13 41 -24 49 -24 19 0 73 29 73 39
0 4 11 13 24 19 21 9 24 19 30 91 l7 82 48 -7 c56 -7 78 2 126 54 39 41 42 54
20 76 -8 8 -15 29 -15 46 0 27 3 31 18 24 42 -18 91 -16 127 6 37 23 55 49 92
139 29 68 29 97 2 112 -26 13 -28 11 -74 -87 -18 -39 -40 -78 -50 -87 -23 -24
-62 -21 -79 6 -31 47 -57 171 -62 292 l-6 120 51 57 c53 58 60 75 39 96 -19
19 -40 14 -74 -19 l-32 -31 -7 73 c-6 56 -12 77 -31 96 -24 24 -29 25 -54 16z
m15 -786 c20 -54 18 -61 -18 -52 -20 5 -26 14 -31 52 -3 25 -6 60 -6 77 l0 31
18 -30 c10 -16 27 -51 37 -78z m-216 -102 c0 -5 -9 1 -19 14 -11 13 -20 33
-20 45 1 17 4 14 20 -14 11 -19 19 -39 19 -45z m4 -93 c26 -4 27 -6 27 -74 0
-63 -2 -69 -16 -57 -18 15 -53 81 -65 122 -7 25 -6 28 9 21 9 -4 29 -9 45 -12z
m-984 -585 c55 -125 101 -234 101 -242 0 -20 -13 -18 -85 8 l-59 22 -18 110
c-10 61 -25 155 -34 210 -8 55 -18 109 -21 120 -15 56 24 -21 116 -228z m236
-268 l-7 -43 -15 28 c-13 25 -13 30 3 47 23 26 27 18 19 -32z m-339 -124 c6
-80 6 -81 -20 -93 -15 -7 -35 -12 -46 -12 -21 0 -60 44 -60 67 0 43 92 145
112 125 4 -4 10 -43 14 -87z m138 64 c6 -5 -1 -20 -19 -39 -26 -27 -30 -29
-37 -13 -3 10 -7 31 -7 47 -1 26 1 28 27 21 15 -3 31 -11 36 -16z"/>
<path d="M2285 2498 c-3 -7 -4 -305 -3 -663 l3 -650 58 -3 57 -3 0 273 0 273
30 51 c57 100 148 154 260 154 63 0 106 -22 144 -73 20 -27 21 -44 26 -350 l5
-322 58 -3 57 -3 0 305 c0 183 -4 325 -11 356 -14 68 -62 129 -124 160 -43 21
-64 25 -145 25 -78 0 -104 -4 -147 -24 -48 -21 -109 -77 -140 -127 -9 -15 -12
51 -12 309 l-1 327 -55 0 c-35 0 -57 -5 -60 -12z"/>
<path d="M210 2357 c0 -3 18 -49 39 -103 74 -188 193 -490 256 -649 34 -88 86
-220 115 -293 l52 -133 81 3 81 3 29 85 c16 47 90 263 164 480 73 217 138 399
142 403 10 10 -3 43 205 -523 l162 -445 81 -3 80 -3 41 113 c22 62 77 217 122
343 139 391 220 618 240 673 l19 52 -67 0 -67 0 -62 -173 c-34 -94 -113 -318
-177 -496 -64 -178 -118 -326 -121 -329 -3 -3 -7 -3 -9 -1 -2 2 -83 220 -179
484 -97 264 -178 488 -182 498 -6 14 -20 17 -80 17 l-72 0 -21 -57 c-11 -32
-55 -159 -97 -283 -202 -592 -229 -670 -234 -670 -3 0 -17 28 -30 63 -13 34
-62 159 -108 277 -47 118 -112 285 -145 370 -34 85 -74 187 -89 225 l-28 70
-70 3 c-39 2 -71 1 -71 -1z"/>
<path d="M5851 2338 c-5 -13 -109 -273 -231 -578 -122 -305 -225 -561 -227
-568 -4 -10 10 -12 63 -10 l68 3 77 195 77 195 272 3 271 2 27 -62 c15 -34 54
-123 87 -198 l60 -135 68 -3 c39 -2 67 1 67 7 0 5 -114 270 -254 588 l-254
578 -81 3 c-77 3 -82 2 -90 -20z m109 -160 c160 -368 200 -461 200 -469 0 -11
-417 -12 -423 -1 -4 7 193 512 200 512 2 0 12 -19 23 -42z"/>
<path d="M4226 2223 c-2 -16 -7 -55 -11 -88 -3 -33 -8 -77 -11 -97 l-6 -37
-69 -7 c-67 -6 -69 -7 -69 -35 0 -28 1 -28 68 -31 l67 -3 5 -337 c5 -322 6
-338 26 -365 11 -15 32 -34 45 -40 34 -18 142 -16 211 3 54 16 57 18 52 43
-14 64 -12 62 -45 45 -17 -8 -51 -18 -77 -21 -38 -4 -52 -1 -72 15 l-25 20 0
319 0 318 98 3 97 3 0 34 0 34 -97 3 -98 3 -3 123 -3 122 -39 0 c-34 0 -39 -3
-44 -27z"/>
<path d="M3415 2020 c-63 -13 -155 -50 -155 -62 0 -6 5 -28 12 -50 9 -30 15
-37 27 -32 115 51 244 68 333 44 79 -22 128 -89 128 -173 l0 -44 -132 -6
c-188 -8 -298 -46 -370 -125 -48 -53 -61 -98 -56 -192 5 -86 27 -133 82 -175
100 -76 303 -40 432 78 29 26 54 44 57 40 2 -4 8 -39 12 -76 l7 -68 41 3 42 3
0 325 0 325 -27 52 c-51 97 -126 133 -288 138 -58 2 -123 0 -145 -5z m345
-494 l0 -94 -46 -51 c-87 -97 -241 -147 -324 -104 -90 46 -95 200 -8 266 63
49 164 73 306 76 l72 1 0 -94z"/>
<path d="M4885 2024 c-137 -35 -205 -111 -205 -230 1 -122 61 -175 255 -224
152 -38 169 -45 205 -87 59 -67 32 -170 -56 -213 -80 -39 -237 -16 -335 49
-24 17 -47 27 -51 23 -15 -16 -27 -86 -17 -98 19 -23 134 -62 213 -73 224 -31
396 78 396 253 0 108 -72 186 -202 219 -219 56 -226 59 -256 88 -62 61 -47
154 30 189 74 34 213 20 311 -30 21 -11 41 -20 46 -20 4 0 13 19 20 41 16 53
9 60 -84 89 -68 21 -225 35 -270 24z"/>
<path d="M7013 2016 c-66 -21 -124 -60 -177 -116 -26 -28 -50 -49 -53 -46 -3
3 -7 27 -10 53 -8 93 -8 93 -60 93 l-46 0 6 -112 c4 -62 7 -350 7 -640 l0
-528 55 0 55 0 2 313 3 312 22 -41 c56 -105 190 -158 340 -134 195 31 313 196
313 433 -1 249 -133 415 -339 424 -46 2 -93 -3 -118 -11z m165 -102 c114 -47
184 -200 167 -369 -13 -133 -62 -217 -151 -261 -105 -51 -242 -18 -333 81 -64
70 -71 94 -71 251 l0 136 31 43 c35 49 101 99 156 120 52 19 155 19 201 -1z"/>
<path d="M8065 2020 c-64 -15 -132 -56 -187 -112 -32 -32 -60 -58 -63 -58 -3
0 -5 13 -5 29 0 15 -3 49 -6 75 l-7 46 -43 0 -44 0 0 -640 0 -640 55 0 55 0 0
305 c0 191 4 305 10 305 5 0 16 -12 24 -27 18 -36 72 -86 112 -106 83 -42 239
-40 332 4 172 83 254 339 183 569 -39 124 -109 202 -219 242 -48 18 -144 22
-197 8z m155 -111 c54 -24 75 -43 106 -90 35 -55 56 -144 56 -229 0 -137 -46
-240 -134 -297 -37 -25 -50 -28 -122 -27 -99 0 -156 23 -221 89 -71 70 -85
114 -85 259 0 117 1 124 28 167 42 66 110 118 182 140 50 15 143 9 190 -12z"/>
</g>
</svg>
